<?xml version="1.0" encoding="utf-8"?>
<!-- Generator: Adobe Illustrator 21.0.0, SVG Export Plug-In . SVG Version: 6.00 Build 0)  -->
<svg version="1.1" id="Capa_1" xmlns="http://www.w3.org/2000/svg" xmlns:xlink="http://www.w3.org/1999/xlink" x="0px" y="0px"
	 viewBox="0 0 50 50" style="enable-background:new 0 0 50 50;" xml:space="preserve">
<g>
	<g id="shopping-cart">
		<path d="M15,40c-2.8,0-5,2.3-5,5s2.3,5,5,5s5-2.3,5-5S17.8,40,15,40z M0,0v5h5l9,19l-3.5,6c-0.3,0.8-0.5,1.8-0.5,2.5
			c0,2.8,2.3,5,5,5h30v-5H16c-0.3,0-0.5-0.3-0.5-0.5v-0.3l2.2-4.3h18.5c2,0,3.5-1,4.3-2.5l9-16.2C50,8.3,50,8,50,7.5
			C50,6,49,5,47.5,5h-37L8.3,0H0z M40,40c-2.8,0-5,2.3-5,5s2.3,5,5,5s5-2.3,5-5S42.8,40,40,40z"/>
	</g>
</g>
</svg>
