<?xml version="1.0" encoding="utf-8"?>
<!-- Generator: Adobe Illustrator 21.0.0, SVG Export Plug-In . SVG Version: 6.00 Build 0)  -->
<svg version="1.1" id="Capa_1" xmlns="http://www.w3.org/2000/svg" xmlns:xlink="http://www.w3.org/1999/xlink" x="0px" y="0px"
	 viewBox="0 0 50 50" style="enable-background:new 0 0 50 50;" xml:space="preserve">
<path d="M49.7,0.2c-0.2-0.2-0.5-0.3-0.8-0.1L0.4,24.4C0.2,24.6,0,24.8,0,25.1c0,0.3,0.2,0.6,0.4,0.7l13.7,7.3
	c0.3,0.1,0.6,0.1,0.8-0.1l13.3-10.8L17.8,34c-0.1,0.2-0.2,0.4-0.2,0.6l1,14.7c0,0.3,0.2,0.6,0.5,0.7c0.1,0,0.2,0,0.2,0
	c0.2,0,0.4-0.1,0.6-0.3l7.3-9.1l9,4.6c0.2,0.1,0.4,0.1,0.6,0c0.2-0.1,0.3-0.3,0.4-0.5L50,1C50.1,0.7,50,0.4,49.7,0.2z"/>
</svg>
