<?xml version="1.0" encoding="utf-8"?>
<!-- Generator: Adobe Illustrator 21.0.0, SVG Export Plug-In . SVG Version: 6.00 Build 0)  -->
<svg version="1.1" id="Capa_1" xmlns="http://www.w3.org/2000/svg" xmlns:xlink="http://www.w3.org/1999/xlink" x="0px" y="0px"
	 viewBox="0 0 50 50" style="enable-background:new 0 0 50 50;" xml:space="preserve">
<path d="M48.9,22.7c1-1,1.3-2.5,0.9-3.8c-0.4-1.4-1.5-2.3-2.9-2.5l-12.1-1.8c-0.5-0.1-1-0.4-1.2-0.9L28.2,2.1C27.6,0.8,26.4,0,25,0
	c-1.4,0-2.6,0.8-3.2,2.1l-5.4,11.5c-0.2,0.5-0.7,0.8-1.2,0.9L3.1,16.3c-1.4,0.2-2.5,1.2-2.9,2.5c-0.4,1.4-0.1,2.8,0.9,3.8l8.8,8.9
	c0.4,0.4,0.5,0.9,0.5,1.5L8.2,45.6c-0.2,1.1,0.1,2.2,0.8,3c1.1,1.3,2.9,1.7,4.4,0.9l10.8-5.9c0.5-0.2,1-0.2,1.5,0l10.8,5.9
	c0.5,0.3,1.1,0.4,1.7,0.4c1.1,0,2.1-0.5,2.8-1.3c0.7-0.8,1-1.9,0.8-3L39.7,33c-0.1-0.5,0.1-1.1,0.5-1.5L48.9,22.7z"/>
</svg>
